<?xml version="1.0" encoding="utf-8"?>
<!-- Generator: Adobe Illustrator 21.0.0, SVG Export Plug-In . SVG Version: 6.00 Build 0)  -->
<svg version="1.1" id="Camada_1" xmlns="http://www.w3.org/2000/svg" xmlns:xlink="http://www.w3.org/1999/xlink" x="0px" y="0px"
	 viewBox="0 0 55.8 55.8" style="enable-background:new 0 0 55.8 55.8;" xml:space="preserve">
<style type="text/css">
	.st0{fill:#FFFFFF;}
</style>
<g>
	<path class="st0" d="M27.9,0.6C12.8,0.6,0.6,12.8,0.6,27.9c0,15.1,12.2,27.3,27.3,27.3C43,55.2,55.2,43,55.2,27.9
		C55.2,12.8,43,0.6,27.9,0.6z M27.9,53.6C13.8,53.6,2.2,42,2.2,27.9S13.8,2.2,27.9,2.2c14.1,0,25.7,11.5,25.7,25.7
		S42,53.6,27.9,53.6z"/>
	<g>
		<path class="st0" d="M43.9,19.9C43.9,19.9,43.9,19.9,43.9,19.9c0-0.1,0-0.1,0-0.1c0,0,0-0.1,0-0.1c0,0,0,0,0,0c0,0,0-0.1,0-0.1
			c0,0,0,0,0,0c0,0-0.1-0.1-0.1-0.2c2.1-2.2,1.9-4.5-0.5-6.9c-1.5-1.5-3.9-3.2-6.9-0.4c0,0,0,0,0,0c0,0,0,0,0,0c0,0-0.1,0-0.1,0
			c0,0,0,0,0,0c0,0-0.1,0-0.1,0c0,0,0,0-0.1,0c0,0-0.1,0-0.1,0c0,0,0,0,0,0c0,0-0.1,0-0.1,0c0,0,0,0,0,0c0,0,0,0-0.1,0
			c0,0,0,0-0.1,0c0,0,0,0,0,0c0,0-0.1,0-0.1,0.1c0,0,0,0,0,0l-2.7,2.7c0,0,0,0,0,0L20.5,27.1l0,0l-0.3,0.3L20,27.6l0,0l-3,3
			c0,0-0.1,0.1-0.1,0.1c0,0-1.6,2.6-3,5.4c-2.6,5.3-2.2,6.8-1.6,7.4c0.3,0.3,0.6,0.5,1.4,0.5c1.1,0,2.9-0.5,6.1-2.1
			c2.8-1.4,5.4-3,5.4-3c0,0,0.1-0.1,0.1-0.1l1.9-1.9c0.1-0.1,0.1-0.1,0.1-0.2c0.1,0,0.1-0.1,0.2-0.1l16.2-16.2c0,0,0,0,0,0
			c0,0,0,0,0.1-0.1c0,0,0,0,0,0c0,0,0,0,0-0.1c0,0,0,0,0-0.1c0,0,0,0,0-0.1c0,0,0,0,0-0.1c0,0,0,0,0-0.1C43.9,20,43.9,20,43.9,19.9
			C43.9,20,43.9,19.9,43.9,19.9z M40.6,21.5c-0.6-0.8-1.6-2.1-2.9-3.4c-1.2-1.2-2.6-2.3-3.4-2.9l1.6-1.6c0.7,0.5,2.1,1.6,3.4,2.8
			c1.2,1.2,2.3,2.6,2.8,3.4L40.6,21.5z M42.1,13.5c1.8,1.8,2,3.2,0.7,4.7c-0.6-0.8-1.4-1.8-2.4-2.7c-1-1-2.1-1.9-2.9-2.5
			C39,11.6,40.3,11.7,42.1,13.5z M13.3,42.6c0,0-0.4-0.5,0.7-3.2c0,0,0,0,0.1,0c0,0,0.9,0.4,1.6,1c0.5,0.5,0.8,1.1,0.9,1.4
			C13.9,43,13.3,42.6,13.3,42.6z M19.2,40.7c-0.4,0.2-0.8,0.4-1.2,0.6c-0.2-0.4-0.6-1.2-1.2-1.9c-0.9-0.9-2-1.3-2.1-1.4
			c0.2-0.4,0.4-0.8,0.6-1.3c0.9-1.8,1.9-3.6,2.5-4.5c0.4,0.3,2,1.4,3.4,2.8c1.2,1.2,2.2,2.5,2.6,3.1C22.8,38.7,21,39.8,19.2,40.7z
			 M26.5,35.7c-0.1,0.1-0.1,0.1-0.1,0.2c-0.1,0-0.1,0.1-0.2,0.1l-1.3,1.3c-0.5-0.7-1.4-2-2.7-3.2c-1.4-1.4-3-2.6-3.6-2.9l2.8-2.8
			l11.9-11.9c0.7,0.5,2.1,1.6,3.4,2.8c1.2,1.2,2.3,2.6,2.8,3.4L26.5,35.7z"/>
		<path class="st0" d="M36.8,21.4c-0.3-0.3-0.7-0.3-1,0L24,33.2c-0.3,0.3-0.3,0.7,0,1c0.1,0.1,0.3,0.2,0.5,0.2
			c0.2,0,0.4-0.1,0.5-0.2l11.8-11.8C37.1,22.2,37.1,21.7,36.8,21.4z"/>
		<path class="st0" d="M34.2,18.8c-0.3-0.3-0.7-0.3-1,0L21.4,30.6c-0.3,0.3-0.3,0.7,0,1c0.1,0.1,0.3,0.2,0.5,0.2
			c0.2,0,0.4-0.1,0.5-0.2l11.8-11.8C34.5,19.6,34.5,19.1,34.2,18.8z"/>
	</g>
</g>
</svg>
