<?xml version="1.0" encoding="utf-8"?>
<!-- Generator: Adobe Illustrator 21.0.0, SVG Export Plug-In . SVG Version: 6.00 Build 0)  -->
<svg version="1.1" id="Camada_1" xmlns="http://www.w3.org/2000/svg" xmlns:xlink="http://www.w3.org/1999/xlink" x="0px" y="0px"
	 viewBox="0 0 55.8 55.8" style="enable-background:new 0 0 55.8 55.8;" xml:space="preserve">
<style type="text/css">
	.st0{fill:#FFFFFF;}
</style>
<g>
	<path class="st0" d="M27.9,55.2C12.8,55.2,0.6,43,0.6,27.9S12.8,0.6,27.9,0.6c15.1,0,27.3,12.2,27.3,27.3S43,55.2,27.9,55.2z
		 M27.9,2.9c-13.8,0-25,11.2-25,25c0,13.8,11.2,25,25,25s25-11.2,25-25C52.9,14.1,41.7,2.9,27.9,2.9z"/>
	<path class="st0" d="M39.6,23.5l-0.5-0.4c-0.5-0.5-1.3-0.4-1.7,0.1l-5.8,6.3c-0.8,0.8-2.1,0.3-2.1-0.8V14.3c0-0.9-0.7-1.5-1.5-1.5
		c-0.9,0-1.5,0.7-1.5,1.5v14.3c0,1.1-1.4,1.7-2.1,0.8l-5.8-6.3c-0.5-0.5-1.2-0.5-1.7-0.1l-0.5,0.4c-0.5,0.5-0.5,1.2-0.1,1.7L27,36.9
		c0.5,0.5,1.3,0.5,1.8,0l10.9-11.7C40.1,24.7,40.1,24,39.6,23.5z"/>
	<path class="st0" d="M39.1,43.4H16.7c-0.9,0-1.5-0.7-1.5-1.5c0-0.9,0.7-1.5,1.5-1.5h22.4c0.9,0,1.5,0.7,1.5,1.5
		C40.7,42.7,40,43.4,39.1,43.4z"/>
</g>
</svg>
