<?xml version="1.0" encoding="utf-8"?>
<!-- Generator: Adobe Illustrator 21.1.0, SVG Export Plug-In . SVG Version: 6.00 Build 0)  -->
<svg version="1.1" id="Camada_1" xmlns="http://www.w3.org/2000/svg" xmlns:xlink="http://www.w3.org/1999/xlink" x="0px" y="0px"
	 viewBox="0 0 55.8 55.8" style="enable-background:new 0 0 55.8 55.8;" xml:space="preserve">
<style type="text/css">
	.st0{fill:#FFFFFF;}
</style>
<g>
	<g>
		<path class="st0" d="M40,20.6h-3.5v-6.1H19.2v6.1h-3.5c-1,0-1.7,0.8-1.7,1.7v13.9c0,1,0.8,1.7,1.7,1.7h3.5v4.3h17.4V38H40
			c1,0,1.7-0.8,1.7-1.7V22.3C41.8,21.4,41,20.6,40,20.6L40,20.6z M21.8,17.1H34v3.5H21.8V17.1z M34,39.7H21.8v-6.1H34V39.7z
			 M39.2,35.3h-2.6V31H19.2v4.3h-2.6V23.2h22.6V35.3z M36.6,24.9H34v2.6h2.6V24.9z M36.6,24.9"/>
	</g>
	<path class="st0" d="M27.9,55.2c-15.1,0-27.3-12.2-27.3-27.3S12.8,0.6,27.9,0.6c15.1,0,27.3,12.2,27.3,27.3S42.9,55.2,27.9,55.2z
		 M27.9,2.9c-13.8,0-25,11.2-25,25c0,13.8,11.2,25,25,25s25-11.2,25-25C52.9,14.1,41.7,2.9,27.9,2.9z"/>
</g>
</svg>
