<?xml version="1.0" encoding="utf-8"?>
<!-- Generator: Adobe Illustrator 21.0.0, SVG Export Plug-In . SVG Version: 6.00 Build 0)  -->
<svg version="1.1" id="Camada_1" xmlns="http://www.w3.org/2000/svg" xmlns:xlink="http://www.w3.org/1999/xlink" x="0px" y="0px"
	 viewBox="0 0 55.8 55.8" style="enable-background:new 0 0 55.8 55.8;" xml:space="preserve">
<style type="text/css">
	.st0{fill:#FFC300;}
</style>
<g>
	<path class="st0" d="M27.9,0.6C12.8,0.6,0.6,12.8,0.6,27.9s12.2,27.3,27.3,27.3C43,55.2,55.2,43,55.2,27.9S43,0.6,27.9,0.6z
		 M27.9,53.6C13.8,53.6,2.2,42,2.2,27.9S13.8,2.2,27.9,2.2s25.7,11.5,25.7,25.7S42,53.6,27.9,53.6z"/>
	<path class="st0" d="M42.8,38.1H30.3l0.8-1.1c0,0,0,0,0,0c0,0,0,0,0,0l9.7-12.7c1.1-1.5,0.8-3.6-0.6-4.7L31.5,13
		c-0.7-0.5-1.6-0.8-2.5-0.7c-0.9,0.1-1.7,0.6-2.2,1.3L12.8,32c-1.1,1.5-0.8,3.6,0.6,4.7c0,0,0,0,0,0l3.9,2.9
		c0.2,0.1,0.3,0.2,0.5,0.2h3.8h7h14.3c0.5,0,0.9-0.4,0.9-0.9S43.3,38.1,42.8,38.1z M28.1,38.1h-6.5h-3.5l-3.6-2.8
		c-0.7-0.5-0.8-1.5-0.3-2.2l3.8-5l11.2,8.5L28.1,38.1z M19,26.7l9.2-12c0.3-0.3,0.6-0.6,1.1-0.6c0.4-0.1,0.8,0.1,1.2,0.3l8.7,6.6
		c0.7,0.5,0.8,1.5,0.3,2.2l-9.2,12L19,26.7z"/>
</g>
</svg>
