<?xml version="1.0" encoding="utf-8"?>
<!-- Generator: Adobe Illustrator 21.1.0, SVG Export Plug-In . SVG Version: 6.00 Build 0)  -->
<svg version="1.1" id="Camada_1" xmlns="http://www.w3.org/2000/svg" xmlns:xlink="http://www.w3.org/1999/xlink" x="0px" y="0px"
	 viewBox="0 0 55.8 55.8" style="enable-background:new 0 0 55.8 55.8;" xml:space="preserve">
<style type="text/css">
	.st0{fill:#FFFFFF;}
</style>
<g>
	<path class="st0" d="M43.6,37.1c0.1-0.1,0.2-0.3,0.1-0.4c0-0.2-0.1-0.3-0.2-0.4c-0.1-0.1-0.3-0.2-0.4-0.1c-0.2,0-0.3,0.1-0.4,0.2
		L39,40.6l-2.1-2.3c-0.1-0.1-0.3-0.2-0.4-0.2c0,0,0,0,0,0c-0.2,0-0.3,0.1-0.4,0.2c-0.2,0.2-0.3,0.6,0,0.9l2.6,2.8
		c0.1,0.1,0.3,0.2,0.5,0.2c0.2,0,0.3-0.1,0.4-0.2L43.6,37.1z"/>
	<path class="st0" d="M14,11.3h-3.3c-0.3,0-0.6,0.3-0.6,0.6v23.5c0,0.3,0.3,0.6,0.6,0.6h7.6l4,4.2c0.2,0.3,0.4,0.6,0.6,0.8
		c0.9,1,2.1,1.5,3.5,1.5h7.7l0.1,0.1c0.8,1.2,1.9,2.1,3.2,2.6c0.8,0.3,1.6,0.4,2.4,0.4c0.9,0,1.9-0.2,2.7-0.6c1.6-0.7,2.9-2,3.5-3.7
		c1.3-3.4-0.4-7.3-3.9-8.6c-2.6-1-5.5-0.3-7.3,1.8c-0.1,0.1-0.2,0.3-0.2,0.4c0,0.2,0.1,0.3,0.2,0.4c0.1,0.1,0.3,0.2,0.4,0.2
		c0.2,0,0.3-0.1,0.4-0.2c1.5-1.7,3.9-2.2,6-1.4c2.8,1.1,4.2,4.2,3.2,7c-0.5,1.4-1.5,2.4-2.9,3c-1.3,0.6-2.8,0.6-4.2,0.1
		c-2.4-0.9-3.9-3.5-3.4-6c0.1-0.3-0.2-0.6-0.5-0.7c-0.2,0-0.3,0-0.5,0.1c-0.1,0.1-0.2,0.2-0.3,0.4c-0.2,1.1-0.1,2.2,0.2,3.3l0.1,0.2
		h-7.1c-1.1,0-2-0.4-2.6-1.1c-1.7-1.9-1.2-5.6-1.2-5.6c0-0.2,0-0.4-0.2-0.5c-0.1-0.1-0.3-0.2-0.5-0.2c-1.6,0-4.2-0.2-4.9-0.8
		C17,33,17,33,17,32.9L17,19h2v0.7L19,19.8c-0.4,0.4-0.6,1-0.6,1.5c0,1.2,1,2.2,2.2,2.2c1,0,1.9-0.7,2.1-1.7l0.1-0.5l-0.1-0.5
		c-0.1-0.4-0.3-0.7-0.6-1L22,19.7V19h1.6v0.7l-0.1,0.1c-0.3,0.3-0.5,0.6-0.6,1l-0.1,0.5l0.1,0.5c0.2,1,1.1,1.7,2.1,1.7
		c1,0,1.9-0.7,2.1-1.7l0.1-0.5l-0.1-0.5c-0.1-0.4-0.3-0.7-0.6-1l-0.1-0.1V19h1.6v0.7l-0.1,0.1c-0.3,0.3-0.5,0.6-0.6,1l-0.1,0.5
		l0.1,0.5c0.2,1,1.1,1.7,2.1,1.7s1.9-0.7,2.1-1.7l0.1-0.5l-0.1-0.5c-0.1-0.4-0.3-0.7-0.6-1l-0.1-0.1V19h1.6v0.7l-0.1,0.1
		c-0.3,0.3-0.5,0.6-0.6,1l-0.1,0.5l0.1,0.5c0.2,1,1.1,1.7,2.1,1.7c1,0,1.9-0.7,2.1-1.7l0.1-0.5l-0.1-0.5c-0.1-0.4-0.3-0.7-0.6-1
		l-0.1-0.1V19h1.6v0.7l-0.1,0.1c-0.3,0.3-0.5,0.6-0.6,1l-0.1,0.5l0.1,0.5c0.2,1,1.1,1.7,2.1,1.7c1.2,0,2.2-1,2.2-2.2
		c0-0.6-0.2-1.1-0.6-1.5l-0.1-0.1V19h2v12.7c0,0.3,0.3,0.6,0.6,0.6s0.6-0.3,0.6-0.6V18.4c0-0.3-0.3-0.6-0.6-0.6h-3.3
		c-0.3,0-0.6,0.3-0.6,0.6V20c0,0.2,0.1,0.4,0.3,0.5c0.3,0.2,0.4,0.5,0.4,0.8c0,0.5-0.4,0.9-0.9,0.9s-0.9-0.4-0.9-0.9
		c0-0.3,0.2-0.6,0.4-0.8c0.2-0.1,0.3-0.3,0.3-0.5v-1.6c0-0.3-0.2-0.6-0.5-0.6l-0.2,0v-5.9c0-0.3-0.3-0.6-0.6-0.6h-3.3
		c-0.3,0-0.6,0.3-0.6,0.6v1.6c0,0.2,0.1,0.4,0.3,0.5c0.3,0.2,0.4,0.5,0.4,0.8c0,0.5-0.4,0.9-0.9,0.9c-0.5,0-0.9-0.4-0.9-0.9
		c0-0.3,0.2-0.6,0.4-0.8c0.2-0.1,0.3-0.3,0.3-0.5v-1.6c0-0.3-0.3-0.6-0.6-0.6h-2.8c-0.3,0-0.6,0.3-0.6,0.6v1.6
		c0,0.2,0.1,0.4,0.3,0.5c0.3,0.2,0.4,0.5,0.4,0.8c0,0.5-0.4,0.9-0.9,0.9s-0.9-0.4-0.9-0.9c0-0.3,0.2-0.6,0.4-0.8
		c0.2-0.1,0.3-0.3,0.3-0.5v-1.6c0-0.3-0.3-0.6-0.6-0.6h-2.8c-0.3,0-0.6,0.3-0.6,0.6v1.6c0,0.2,0.1,0.4,0.3,0.5
		c0.3,0.2,0.4,0.5,0.4,0.8c0,0.5-0.4,0.9-0.9,0.9S23,15.3,23,14.8c0-0.3,0.2-0.6,0.4-0.8c0.2-0.1,0.3-0.3,0.3-0.5v-1.6
		c0-0.3-0.3-0.6-0.6-0.6h-2.8c-0.3,0-0.6,0.3-0.6,0.6v1.6c0,0.2,0.1,0.4,0.3,0.5c0.3,0.2,0.4,0.5,0.4,0.8c0,0.5-0.4,0.9-0.9,0.9
		s-0.9-0.4-0.9-0.9c0-0.3,0.2-0.6,0.4-0.8c0.2-0.1,0.3-0.3,0.3-0.5v-1.6c0-0.3-0.3-0.6-0.6-0.6h-2.8c-0.3,0-0.6,0.3-0.6,0.6v1.6
		c0,0.2,0.1,0.4,0.3,0.5c0.3,0.2,0.4,0.5,0.4,0.8c0,0.5-0.4,0.9-0.9,0.9c-0.5,0-0.9-0.4-0.9-0.9c0-0.3,0.2-0.6,0.4-0.8
		c0.2-0.1,0.3-0.3,0.3-0.5v-1.6C14.6,11.5,14.3,11.3,14,11.3z M19.5,35c0.5,0.1,1.1,0.1,1.7,0.1l0.2,0l0,0.2c0,0.6,0,1.1,0,1.7
		l0,0.5L19,35L19.5,35z M14.9,16.9c1,0,1.9-0.7,2.1-1.7l0.1-0.5L17,14.3c-0.1-0.4-0.3-0.7-0.6-1l-0.1-0.1v-0.7h1.6v0.7l-0.1,0.1
		c-0.3,0.3-0.5,0.6-0.6,1l-0.1,0.5l0.1,0.5c0.2,1,1.1,1.7,2.1,1.7c1,0,1.9-0.7,2.1-1.7l0.1-0.5l-0.1-0.5c-0.1-0.4-0.3-0.7-0.6-1
		l-0.1-0.1v-0.7h1.6v0.7l-0.1,0.1c-0.3,0.3-0.5,0.6-0.6,1l-0.1,0.5l0.1,0.5c0.2,1,1.1,1.7,2.1,1.7s1.9-0.7,2.1-1.7l0.1-0.5L26,14.3
		c-0.1-0.4-0.3-0.7-0.6-1l-0.1-0.1v-0.7H27v0.7l-0.1,0.1c-0.3,0.3-0.5,0.6-0.6,1l-0.1,0.5l0.1,0.5c0.2,1,1.1,1.7,2.1,1.7
		c1,0,1.9-0.7,2.1-1.7l0.1-0.5l-0.1-0.5c-0.1-0.4-0.3-0.7-0.6-1l-0.1-0.1v-0.7h1.6v0.7l-0.1,0.1c-0.3,0.3-0.5,0.6-0.6,1l-0.1,0.5
		l0.1,0.5c0.2,1,1.1,1.7,2.1,1.7c1.2,0,2.2-1,2.2-2.2c0-0.6-0.2-1.1-0.6-1.5l-0.1-0.1v-0.7h2v5.3H35c-0.3,0-0.6,0.3-0.6,0.6V20
		c0,0.2,0.1,0.4,0.3,0.5c0.3,0.2,0.4,0.5,0.4,0.8c0,0.5-0.4,0.9-0.9,0.9s-0.9-0.4-0.9-0.9c0-0.3,0.2-0.6,0.4-0.8
		c0.2-0.1,0.3-0.3,0.3-0.5v-1.6c0-0.3-0.3-0.6-0.6-0.6h-2.8c-0.3,0-0.6,0.3-0.6,0.6V20c0,0.2,0.1,0.4,0.3,0.5
		c0.3,0.2,0.4,0.5,0.4,0.8c0,0.5-0.4,0.9-0.9,0.9s-0.9-0.4-0.9-0.9c0-0.3,0.2-0.6,0.4-0.8c0.2-0.1,0.3-0.3,0.3-0.5v-1.6
		c0-0.3-0.3-0.6-0.6-0.6h-2.8c-0.3,0-0.6,0.3-0.6,0.6V20c0,0.2,0.1,0.4,0.3,0.5c0.3,0.2,0.4,0.5,0.4,0.8c0,0.5-0.4,0.9-0.9,0.9
		s-0.9-0.4-0.9-0.9c0-0.3,0.2-0.6,0.4-0.8c0.2-0.1,0.3-0.3,0.3-0.5v-1.6c0-0.3-0.3-0.6-0.6-0.6h-2.8c-0.3,0-0.6,0.3-0.6,0.6V20
		c0,0.2,0.1,0.4,0.3,0.5c0.3,0.2,0.4,0.5,0.4,0.8c0,0.5-0.4,0.9-0.9,0.9c-0.5,0-0.9-0.4-0.9-0.9c0-0.3,0.2-0.6,0.4-0.8
		c0.2-0.1,0.3-0.3,0.3-0.5v-1.6c0-0.3-0.3-0.6-0.6-0.6h-3.3c-0.3,0-0.6,0.3-0.6,0.6v14.5c0,0.4,0.2,0.8,0.5,1.1
		c0.1,0.1,0.2,0.2,0.4,0.3l0,0l0.5,0.5h-5.8V12.5h2v0.7l-0.1,0.1c-0.4,0.4-0.6,1-0.6,1.5C12.7,16,13.7,16.9,14.9,16.9z"/>
	<path class="st0" d="M27.8,0.4c-15,0-27.3,12.2-27.3,27.3c0,15,12.2,27.3,27.3,27.3c15,0,27.3-12.2,27.3-27.3
		C55.1,12.7,42.8,0.4,27.8,0.4z M27.8,53.4c-14.1,0-25.6-11.5-25.6-25.6S13.7,2.1,27.8,2.1c14.1,0,25.6,11.5,25.6,25.6
		S41.9,53.4,27.8,53.4z"/>
</g>
</svg>
