<?xml version="1.0" encoding="utf-8"?>
<!-- Generator: Adobe Illustrator 21.0.0, SVG Export Plug-In . SVG Version: 6.00 Build 0)  -->
<svg version="1.1" id="Camada_1" xmlns="http://www.w3.org/2000/svg" xmlns:xlink="http://www.w3.org/1999/xlink" x="0px" y="0px"
	 viewBox="0 0 55.8 55.8" style="enable-background:new 0 0 55.8 55.8;" xml:space="preserve">
<style type="text/css">
	.st0{fill:#FFFFFF;}
</style>
<g>
	<path class="st0" d="M27.9,2.6c14,0,25.3,11.3,25.3,25.3S41.9,53.2,27.9,53.2S2.6,41.9,2.6,27.9S13.9,2.6,27.9,2.6 M27.9,0.6
		C12.8,0.6,0.6,12.8,0.6,27.9s12.2,27.3,27.3,27.3S55.2,43,55.2,27.9S43,0.6,27.9,0.6L27.9,0.6z"/>
</g>
<g>
	<g>
		<path class="st0" d="M39.5,42.1H16.3c-0.6,0-1-0.4-1-1V14.7c0-0.6,0.4-1,1-1h23.2c0.6,0,1,0.4,1,1v26.4
			C40.5,41.7,40,42.1,39.5,42.1z M17.3,40.1h21.2V15.7H17.3V40.1z"/>
	</g>
	<g>
		<g>
			<g>
				<rect x="24.4" y="19.4" class="st0" width="10.7" height="2"/>
			</g>
			<g>
				<rect x="20.6" y="19.4" class="st0" width="2" height="2"/>
			</g>
		</g>
		<g>
			<g>
				<rect x="24.4" y="24.4" class="st0" width="10.7" height="2"/>
			</g>
			<g>
				<rect x="20.6" y="24.4" class="st0" width="2" height="2"/>
			</g>
		</g>
		<g>
			<g>
				<rect x="24.4" y="29.4" class="st0" width="10.7" height="2"/>
			</g>
			<g>
				<rect x="20.6" y="29.4" class="st0" width="2" height="2"/>
			</g>
		</g>
		<g>
			<g>
				<rect x="24.4" y="34.4" class="st0" width="10.7" height="2"/>
			</g>
			<g>
				<rect x="20.6" y="34.4" class="st0" width="2" height="2"/>
			</g>
		</g>
	</g>
</g>
</svg>
